<mxfile host="app.diagrams.net" modified="2021-07-19T17:07:39.556Z" agent="5.0 (Windows NT 10.0; Win64; x64) AppleWebKit/537.36 (KHTML, like Gecko) Chrome/91.0.4472.124 Safari/537.36" etag="X8sYEJx9aFLqtkj9xr2z" version="14.8.1" type="github">
  <diagram id="KDgwthmWjj9tjjFobpzf" name="Page-1">
    <mxGraphModel dx="948" dy="508" grid="1" gridSize="10" guides="1" tooltips="1" connect="1" arrows="1" fold="1" page="1" pageScale="1" pageWidth="1169" pageHeight="827" math="0" shadow="0">
      <root>
        <mxCell id="0" />
        <mxCell id="1" parent="0" />
        <mxCell id="wmJPhNlkqKaPDPAHrRT1-74" value="" style="rounded=0;whiteSpace=wrap;html=1;fillColor=#E6E6E6;" vertex="1" parent="1">
          <mxGeometry x="312.5" y="509" width="520" height="150" as="geometry" />
        </mxCell>
        <mxCell id="wmJPhNlkqKaPDPAHrRT1-73" value="" style="rounded=0;whiteSpace=wrap;html=1;fillColor=#E6E6E6;" vertex="1" parent="1">
          <mxGeometry x="315" y="160" width="515" height="290" as="geometry" />
        </mxCell>
        <mxCell id="wmJPhNlkqKaPDPAHrRT1-6" value="" style="rounded=0;whiteSpace=wrap;html=1;" vertex="1" parent="1">
          <mxGeometry x="110" y="160" width="150" height="500" as="geometry" />
        </mxCell>
        <mxCell id="wmJPhNlkqKaPDPAHrRT1-7" value="" style="dashed=1;whiteSpace=wrap;html=1;" vertex="1" parent="1">
          <mxGeometry x="330" y="180" width="70" height="60" as="geometry" />
        </mxCell>
        <mxCell id="wmJPhNlkqKaPDPAHrRT1-8" value="" style="rounded=0;whiteSpace=wrap;html=1;dashed=1;" vertex="1" parent="1">
          <mxGeometry x="440" y="180" width="80" height="60" as="geometry" />
        </mxCell>
        <mxCell id="wmJPhNlkqKaPDPAHrRT1-9" value="" style="rounded=0;whiteSpace=wrap;html=1;" vertex="1" parent="1">
          <mxGeometry x="560" y="180" width="110" height="60" as="geometry" />
        </mxCell>
        <mxCell id="wmJPhNlkqKaPDPAHrRT1-10" value="" style="rounded=0;whiteSpace=wrap;html=1;" vertex="1" parent="1">
          <mxGeometry x="690" y="180" width="100" height="60" as="geometry" />
        </mxCell>
        <mxCell id="wmJPhNlkqKaPDPAHrRT1-12" value="" style="rounded=0;whiteSpace=wrap;html=1;fillColor=#FFFFFF;" vertex="1" parent="1">
          <mxGeometry x="330" y="290" width="80" height="140" as="geometry" />
        </mxCell>
        <mxCell id="wmJPhNlkqKaPDPAHrRT1-13" value="" style="rounded=0;whiteSpace=wrap;html=1;fillColor=#FFFFFF;" vertex="1" parent="1">
          <mxGeometry x="450" y="290" width="230" height="140" as="geometry" />
        </mxCell>
        <mxCell id="wmJPhNlkqKaPDPAHrRT1-14" value="" style="rounded=0;whiteSpace=wrap;html=1;" vertex="1" parent="1">
          <mxGeometry x="690" y="290" width="100" height="60" as="geometry" />
        </mxCell>
        <mxCell id="wmJPhNlkqKaPDPAHrRT1-15" value="" style="verticalLabelPosition=bottom;html=1;verticalAlign=top;align=center;strokeColor=none;fillColor=#00BEF2;shape=mxgraph.azure.virtual_machine_feature;pointerEvents=1;" vertex="1" parent="1">
          <mxGeometry x="340" y="190" width="30" height="22" as="geometry" />
        </mxCell>
        <mxCell id="wmJPhNlkqKaPDPAHrRT1-16" value="" style="verticalLabelPosition=bottom;html=1;verticalAlign=top;align=center;strokeColor=none;fillColor=#00BEF2;shape=mxgraph.azure.virtual_machine_feature;pointerEvents=1;" vertex="1" parent="1">
          <mxGeometry x="460" y="190" width="30" height="22" as="geometry" />
        </mxCell>
        <mxCell id="wmJPhNlkqKaPDPAHrRT1-17" value="" style="verticalLabelPosition=bottom;html=1;verticalAlign=top;align=center;strokeColor=none;fillColor=#00BEF2;shape=mxgraph.azure.virtual_machine_feature;pointerEvents=1;" vertex="1" parent="1">
          <mxGeometry x="570" y="190" width="30" height="22" as="geometry" />
        </mxCell>
        <mxCell id="wmJPhNlkqKaPDPAHrRT1-18" value="" style="verticalLabelPosition=bottom;html=1;verticalAlign=top;align=center;strokeColor=none;fillColor=#00BEF2;shape=mxgraph.azure.virtual_machine_feature;pointerEvents=1;" vertex="1" parent="1">
          <mxGeometry x="610" y="190" width="30" height="22" as="geometry" />
        </mxCell>
        <mxCell id="wmJPhNlkqKaPDPAHrRT1-19" value="" style="verticalLabelPosition=bottom;html=1;verticalAlign=top;align=center;strokeColor=none;fillColor=#00BEF2;shape=mxgraph.azure.virtual_machine_feature;pointerEvents=1;" vertex="1" parent="1">
          <mxGeometry x="740" y="190" width="30" height="22" as="geometry" />
        </mxCell>
        <mxCell id="wmJPhNlkqKaPDPAHrRT1-20" value="" style="verticalLabelPosition=bottom;html=1;verticalAlign=top;align=center;strokeColor=none;fillColor=#00BEF2;shape=mxgraph.azure.virtual_machine_feature;pointerEvents=1;" vertex="1" parent="1">
          <mxGeometry x="700" y="190" width="30" height="22" as="geometry" />
        </mxCell>
        <mxCell id="wmJPhNlkqKaPDPAHrRT1-21" value="" style="verticalLabelPosition=bottom;html=1;verticalAlign=top;align=center;strokeColor=none;fillColor=#00BEF2;shape=mxgraph.azure.virtual_machine_feature;pointerEvents=1;" vertex="1" parent="1">
          <mxGeometry x="460.1" y="392" width="30" height="22" as="geometry" />
        </mxCell>
        <mxCell id="wmJPhNlkqKaPDPAHrRT1-22" value="" style="verticalLabelPosition=bottom;html=1;verticalAlign=top;align=center;strokeColor=none;fillColor=#00BEF2;shape=mxgraph.azure.virtual_machine_feature;pointerEvents=1;" vertex="1" parent="1">
          <mxGeometry x="502.5" y="392" width="30" height="22" as="geometry" />
        </mxCell>
        <mxCell id="wmJPhNlkqKaPDPAHrRT1-23" value="" style="verticalLabelPosition=bottom;html=1;verticalAlign=top;align=center;strokeColor=none;fillColor=#00BEF2;shape=mxgraph.azure.virtual_machine_feature;pointerEvents=1;" vertex="1" parent="1">
          <mxGeometry x="335" y="320" width="30" height="22" as="geometry" />
        </mxCell>
        <mxCell id="wmJPhNlkqKaPDPAHrRT1-24" value="" style="verticalLabelPosition=bottom;html=1;verticalAlign=top;align=center;strokeColor=none;fillColor=#00BEF2;shape=mxgraph.azure.virtual_machine_feature;pointerEvents=1;" vertex="1" parent="1">
          <mxGeometry x="375" y="320" width="30" height="22" as="geometry" />
        </mxCell>
        <mxCell id="wmJPhNlkqKaPDPAHrRT1-25" value="" style="verticalLabelPosition=bottom;html=1;verticalAlign=top;align=center;strokeColor=none;fillColor=#00BEF2;shape=mxgraph.azure.virtual_machine_feature;pointerEvents=1;" vertex="1" parent="1">
          <mxGeometry x="335" y="349" width="30" height="22" as="geometry" />
        </mxCell>
        <mxCell id="wmJPhNlkqKaPDPAHrRT1-26" value="" style="verticalLabelPosition=bottom;html=1;verticalAlign=top;align=center;strokeColor=none;fillColor=#00BEF2;shape=mxgraph.azure.virtual_machine_feature;pointerEvents=1;" vertex="1" parent="1">
          <mxGeometry x="375" y="349" width="30" height="22" as="geometry" />
        </mxCell>
        <mxCell id="wmJPhNlkqKaPDPAHrRT1-27" value="" style="verticalLabelPosition=bottom;html=1;verticalAlign=top;align=center;strokeColor=none;fillColor=#00BEF2;shape=mxgraph.azure.virtual_machine_feature;pointerEvents=1;" vertex="1" parent="1">
          <mxGeometry x="335" y="380" width="30" height="22" as="geometry" />
        </mxCell>
        <mxCell id="wmJPhNlkqKaPDPAHrRT1-28" value="" style="verticalLabelPosition=bottom;html=1;verticalAlign=top;align=center;strokeColor=none;fillColor=#00BEF2;shape=mxgraph.azure.virtual_machine_feature;pointerEvents=1;" vertex="1" parent="1">
          <mxGeometry x="375" y="380" width="30" height="22" as="geometry" />
        </mxCell>
        <mxCell id="wmJPhNlkqKaPDPAHrRT1-29" value="" style="aspect=fixed;html=1;points=[];align=center;image;fontSize=12;image=img/lib/mscae/Network_Security_Groups_Classic.svg;fillColor=#FFFFFF;" vertex="1" parent="1">
          <mxGeometry x="390.2" y="170" width="14.8" height="20" as="geometry" />
        </mxCell>
        <mxCell id="wmJPhNlkqKaPDPAHrRT1-31" value="" style="aspect=fixed;html=1;points=[];align=center;image;fontSize=12;image=img/lib/mscae/Network_Security_Groups_Classic.svg;fillColor=#FFFFFF;" vertex="1" parent="1">
          <mxGeometry x="780" y="170" width="14.8" height="20" as="geometry" />
        </mxCell>
        <mxCell id="wmJPhNlkqKaPDPAHrRT1-32" value="" style="aspect=fixed;html=1;points=[];align=center;image;fontSize=12;image=img/lib/mscae/Network_Security_Groups_Classic.svg;fillColor=#FFFFFF;" vertex="1" parent="1">
          <mxGeometry x="660" y="170" width="14.8" height="20" as="geometry" />
        </mxCell>
        <mxCell id="wmJPhNlkqKaPDPAHrRT1-33" value="" style="aspect=fixed;html=1;points=[];align=center;image;fontSize=12;image=img/lib/mscae/Network_Security_Groups_Classic.svg;fillColor=#FFFFFF;" vertex="1" parent="1">
          <mxGeometry x="510" y="170" width="14.8" height="20" as="geometry" />
        </mxCell>
        <mxCell id="wmJPhNlkqKaPDPAHrRT1-34" value="" style="aspect=fixed;html=1;points=[];align=center;image;fontSize=12;image=img/lib/mscae/Network_Security_Groups_Classic.svg;fillColor=#FFFFFF;" vertex="1" parent="1">
          <mxGeometry x="400" y="284" width="14.8" height="20" as="geometry" />
        </mxCell>
        <mxCell id="wmJPhNlkqKaPDPAHrRT1-35" value="" style="aspect=fixed;html=1;points=[];align=center;image;fontSize=12;image=img/lib/mscae/Network_Security_Groups_Classic.svg;fillColor=#FFFFFF;" vertex="1" parent="1">
          <mxGeometry x="670" y="284" width="14.8" height="20" as="geometry" />
        </mxCell>
        <mxCell id="wmJPhNlkqKaPDPAHrRT1-36" value="" style="aspect=fixed;html=1;points=[];align=center;image;fontSize=12;image=img/lib/mscae/Network_Security_Groups_Classic.svg;fillColor=#FFFFFF;" vertex="1" parent="1">
          <mxGeometry x="780" y="284" width="14.8" height="20" as="geometry" />
        </mxCell>
        <mxCell id="wmJPhNlkqKaPDPAHrRT1-39" value="" style="aspect=fixed;html=1;points=[];align=center;image;fontSize=12;image=img/lib/azure2/networking/Virtual_Networks.svg;fillColor=#FFFFFF;" vertex="1" parent="1">
          <mxGeometry x="792" y="450" width="33.5" height="20" as="geometry" />
        </mxCell>
        <mxCell id="wmJPhNlkqKaPDPAHrRT1-40" value="&lt;font style=&quot;font-size: 9px&quot;&gt;Spoke VNET&lt;/font&gt;" style="text;html=1;strokeColor=none;fillColor=none;align=center;verticalAlign=middle;whiteSpace=wrap;rounded=0;" vertex="1" parent="1">
          <mxGeometry x="780" y="470" width="63" height="20" as="geometry" />
        </mxCell>
        <mxCell id="wmJPhNlkqKaPDPAHrRT1-41" value="" style="aspect=fixed;html=1;points=[];align=center;image;fontSize=12;image=img/lib/azure2/networking/Virtual_Networks.svg;fillColor=#FFFFFF;" vertex="1" parent="1">
          <mxGeometry x="806.75" y="630" width="33.5" height="20" as="geometry" />
        </mxCell>
        <mxCell id="wmJPhNlkqKaPDPAHrRT1-42" value="&lt;font style=&quot;font-size: 9px&quot;&gt;HUB VNET&lt;/font&gt;" style="text;html=1;strokeColor=none;fillColor=none;align=center;verticalAlign=middle;whiteSpace=wrap;rounded=0;" vertex="1" parent="1">
          <mxGeometry x="794.8" y="650" width="63" height="19" as="geometry" />
        </mxCell>
        <mxCell id="wmJPhNlkqKaPDPAHrRT1-43" value="" style="rounded=0;whiteSpace=wrap;html=1;" vertex="1" parent="1">
          <mxGeometry x="565.2" y="540" width="104.8" height="60" as="geometry" />
        </mxCell>
        <mxCell id="wmJPhNlkqKaPDPAHrRT1-44" value="" style="verticalLabelPosition=bottom;html=1;verticalAlign=top;align=center;strokeColor=none;fillColor=#00BEF2;shape=mxgraph.azure.virtual_machine_feature;pointerEvents=1;" vertex="1" parent="1">
          <mxGeometry x="580" y="559" width="30" height="22" as="geometry" />
        </mxCell>
        <mxCell id="wmJPhNlkqKaPDPAHrRT1-45" value="" style="verticalLabelPosition=bottom;html=1;verticalAlign=top;align=center;strokeColor=none;fillColor=#00BEF2;shape=mxgraph.azure.virtual_machine_feature;pointerEvents=1;" vertex="1" parent="1">
          <mxGeometry x="614.8000000000001" y="559" width="30" height="22" as="geometry" />
        </mxCell>
        <mxCell id="wmJPhNlkqKaPDPAHrRT1-46" value="" style="aspect=fixed;html=1;points=[];align=center;image;fontSize=12;image=img/lib/mscae/Network_Security_Groups_Classic.svg;fillColor=#FFFFFF;" vertex="1" parent="1">
          <mxGeometry x="665.2" y="530" width="14.8" height="20" as="geometry" />
        </mxCell>
        <mxCell id="wmJPhNlkqKaPDPAHrRT1-47" value="&lt;font style=&quot;font-size: 6px&quot;&gt;AD Subnet&lt;/font&gt;" style="text;html=1;strokeColor=none;fillColor=none;align=center;verticalAlign=middle;whiteSpace=wrap;rounded=0;" vertex="1" parent="1">
          <mxGeometry x="565.2" y="539" width="40" height="20" as="geometry" />
        </mxCell>
        <mxCell id="wmJPhNlkqKaPDPAHrRT1-48" value="" style="rounded=0;whiteSpace=wrap;html=1;fillColor=#FFFFFF;" vertex="1" parent="1">
          <mxGeometry x="450" y="540" width="82.5" height="60" as="geometry" />
        </mxCell>
        <mxCell id="wmJPhNlkqKaPDPAHrRT1-49" value="" style="rounded=0;whiteSpace=wrap;html=1;fillColor=#FFFFFF;" vertex="1" parent="1">
          <mxGeometry x="330" y="540" width="80" height="60" as="geometry" />
        </mxCell>
        <mxCell id="wmJPhNlkqKaPDPAHrRT1-58" value="" style="verticalLabelPosition=bottom;html=1;verticalAlign=top;align=center;strokeColor=none;fillColor=#00BEF2;shape=mxgraph.azure.virtual_machine_feature;pointerEvents=1;" vertex="1" parent="1">
          <mxGeometry x="460" y="330" width="30" height="22" as="geometry" />
        </mxCell>
        <mxCell id="wmJPhNlkqKaPDPAHrRT1-59" value="" style="verticalLabelPosition=bottom;html=1;verticalAlign=top;align=center;strokeColor=none;fillColor=#00BEF2;shape=mxgraph.azure.virtual_machine_feature;pointerEvents=1;" vertex="1" parent="1">
          <mxGeometry x="502.4" y="330" width="30" height="22" as="geometry" />
        </mxCell>
        <mxCell id="wmJPhNlkqKaPDPAHrRT1-60" value="" style="verticalLabelPosition=bottom;html=1;verticalAlign=top;align=center;strokeColor=none;fillColor=#00BEF2;shape=mxgraph.azure.virtual_machine_feature;pointerEvents=1;" vertex="1" parent="1">
          <mxGeometry x="542.5" y="392" width="30" height="22" as="geometry" />
        </mxCell>
        <mxCell id="wmJPhNlkqKaPDPAHrRT1-61" value="" style="verticalLabelPosition=bottom;html=1;verticalAlign=top;align=center;strokeColor=none;fillColor=#00BEF2;shape=mxgraph.azure.virtual_machine_feature;pointerEvents=1;" vertex="1" parent="1">
          <mxGeometry x="585" y="392" width="30" height="22" as="geometry" />
        </mxCell>
        <mxCell id="wmJPhNlkqKaPDPAHrRT1-62" value="" style="verticalLabelPosition=bottom;html=1;verticalAlign=top;align=center;strokeColor=none;fillColor=#00BEF2;shape=mxgraph.azure.virtual_machine_feature;pointerEvents=1;" vertex="1" parent="1">
          <mxGeometry x="460.1" y="360" width="30" height="22" as="geometry" />
        </mxCell>
        <mxCell id="wmJPhNlkqKaPDPAHrRT1-63" value="" style="verticalLabelPosition=bottom;html=1;verticalAlign=top;align=center;strokeColor=none;fillColor=#00BEF2;shape=mxgraph.azure.virtual_machine_feature;pointerEvents=1;" vertex="1" parent="1">
          <mxGeometry x="502.5" y="360" width="30" height="22" as="geometry" />
        </mxCell>
        <mxCell id="wmJPhNlkqKaPDPAHrRT1-64" value="" style="verticalLabelPosition=bottom;html=1;verticalAlign=top;align=center;strokeColor=none;fillColor=#00BEF2;shape=mxgraph.azure.virtual_machine_feature;pointerEvents=1;" vertex="1" parent="1">
          <mxGeometry x="542.4" y="330" width="30" height="22" as="geometry" />
        </mxCell>
        <mxCell id="wmJPhNlkqKaPDPAHrRT1-65" value="" style="verticalLabelPosition=bottom;html=1;verticalAlign=top;align=center;strokeColor=none;fillColor=#00BEF2;shape=mxgraph.azure.virtual_machine_feature;pointerEvents=1;" vertex="1" parent="1">
          <mxGeometry x="584.8" y="330" width="30" height="22" as="geometry" />
        </mxCell>
        <mxCell id="wmJPhNlkqKaPDPAHrRT1-66" value="" style="verticalLabelPosition=bottom;html=1;verticalAlign=top;align=center;strokeColor=none;fillColor=#00BEF2;shape=mxgraph.azure.virtual_machine_feature;pointerEvents=1;" vertex="1" parent="1">
          <mxGeometry x="542.5" y="360" width="30" height="22" as="geometry" />
        </mxCell>
        <mxCell id="wmJPhNlkqKaPDPAHrRT1-67" value="" style="verticalLabelPosition=bottom;html=1;verticalAlign=top;align=center;strokeColor=none;fillColor=#00BEF2;shape=mxgraph.azure.virtual_machine_feature;pointerEvents=1;" vertex="1" parent="1">
          <mxGeometry x="585" y="360" width="30" height="22" as="geometry" />
        </mxCell>
        <mxCell id="wmJPhNlkqKaPDPAHrRT1-69" value="&lt;font style=&quot;font-size: 8px&quot;&gt;web and services subnet&lt;/font&gt;" style="text;html=1;strokeColor=none;fillColor=none;align=center;verticalAlign=middle;whiteSpace=wrap;rounded=0;" vertex="1" parent="1">
          <mxGeometry x="449.1" y="295" width="104.9" height="20" as="geometry" />
        </mxCell>
        <mxCell id="wmJPhNlkqKaPDPAHrRT1-70" value="&lt;font style=&quot;font-size: 8px&quot;&gt;Infra subnet&lt;/font&gt;" style="text;html=1;strokeColor=none;fillColor=none;align=center;verticalAlign=middle;whiteSpace=wrap;rounded=0;" vertex="1" parent="1">
          <mxGeometry x="335" y="295" width="55" height="20" as="geometry" />
        </mxCell>
        <mxCell id="wmJPhNlkqKaPDPAHrRT1-71" value="" style="aspect=fixed;html=1;points=[];align=center;image;fontSize=12;image=img/lib/mscae/Load_Balancer_feature.svg;fillColor=#FFFFFF;" vertex="1" parent="1">
          <mxGeometry x="726" y="342" width="28" height="28" as="geometry" />
        </mxCell>
        <mxCell id="wmJPhNlkqKaPDPAHrRT1-72" value="" style="aspect=fixed;html=1;points=[];align=center;image;fontSize=12;image=img/lib/mscae/Load_Balancer_feature.svg;fillColor=#FFFFFF;" vertex="1" parent="1">
          <mxGeometry x="724" y="230" width="30" height="30" as="geometry" />
        </mxCell>
        <mxCell id="wmJPhNlkqKaPDPAHrRT1-76" value="" style="aspect=fixed;html=1;points=[];align=center;image;fontSize=12;image=img/lib/mscae/VPN_Gateway.svg;fillColor=#E6E6E6;" vertex="1" parent="1">
          <mxGeometry x="353.75" y="559" width="22.5" height="25" as="geometry" />
        </mxCell>
        <mxCell id="wmJPhNlkqKaPDPAHrRT1-77" value="" style="aspect=fixed;html=1;points=[];align=center;image;fontSize=12;image=img/lib/mscae/Azure_Firewall.svg;fillColor=#E6E6E6;" vertex="1" parent="1">
          <mxGeometry x="472.5" y="554" width="30" height="30" as="geometry" />
        </mxCell>
        <mxCell id="wmJPhNlkqKaPDPAHrRT1-78" value="&lt;font style=&quot;font-size: 8px&quot;&gt;Gateway Subnet&lt;/font&gt;" style="text;html=1;strokeColor=none;fillColor=none;align=center;verticalAlign=middle;whiteSpace=wrap;rounded=0;" vertex="1" parent="1">
          <mxGeometry x="327.5" y="534" width="70" height="20" as="geometry" />
        </mxCell>
        <mxCell id="wmJPhNlkqKaPDPAHrRT1-79" value="&lt;font style=&quot;font-size: 8px&quot;&gt;VPN Gateway&lt;/font&gt;" style="text;html=1;strokeColor=none;fillColor=none;align=center;verticalAlign=middle;whiteSpace=wrap;rounded=0;" vertex="1" parent="1">
          <mxGeometry x="330" y="580" width="70" height="20" as="geometry" />
        </mxCell>
        <mxCell id="wmJPhNlkqKaPDPAHrRT1-80" value="&lt;font style=&quot;font-size: 8px&quot;&gt;Azure FW Subnet&lt;/font&gt;" style="text;html=1;strokeColor=none;fillColor=none;align=center;verticalAlign=middle;whiteSpace=wrap;rounded=0;" vertex="1" parent="1">
          <mxGeometry x="445" y="534" width="70" height="20" as="geometry" />
        </mxCell>
      </root>
    </mxGraphModel>
  </diagram>
</mxfile>
